<mxfile host="app.diagrams.net" modified="2024-05-15T11:13:26.857Z" agent="Mozilla/5.0 (Windows NT 10.0; Win64; x64) AppleWebKit/537.36 (KHTML, like Gecko) Chrome/121.0.0.0 Safari/537.36 OPR/107.0.0.0" etag="_vRbeRqPkbXjZQWj10v4" version="24.4.0" type="device">
  <diagram name="Страница — 1" id="mD2JTalcdo-NEluC00Ja">
    <mxGraphModel dx="1461" dy="606" grid="1" gridSize="10" guides="1" tooltips="1" connect="1" arrows="1" fold="1" page="1" pageScale="1" pageWidth="827" pageHeight="1169" math="0" shadow="0">
      <root>
        <mxCell id="0" />
        <mxCell id="1" parent="0" />
        <mxCell id="-_jbPHPiex7v6BaQ6Vg4-1" value="" style="shape=folder;fontStyle=1;spacingTop=10;tabWidth=130;tabHeight=30;tabPosition=left;html=1;whiteSpace=wrap;" vertex="1" parent="1">
          <mxGeometry x="190" y="50" width="390" height="220" as="geometry" />
        </mxCell>
        <mxCell id="-_jbPHPiex7v6BaQ6Vg4-2" value="&lt;font style=&quot;font-size: 14px;&quot;&gt;Client GUI&lt;/font&gt;" style="shape=folder;fontStyle=1;spacingTop=10;tabWidth=40;tabHeight=14;tabPosition=left;html=1;whiteSpace=wrap;" vertex="1" parent="1">
          <mxGeometry x="240" y="130" width="140" height="90" as="geometry" />
        </mxCell>
        <mxCell id="-_jbPHPiex7v6BaQ6Vg4-3" value="Desktop App GUI" style="text;align=center;fontStyle=1;verticalAlign=middle;spacingLeft=3;spacingRight=3;strokeColor=none;rotatable=0;points=[[0,0.5],[1,0.5]];portConstraint=eastwest;html=1;" vertex="1" parent="1">
          <mxGeometry x="180" y="50" width="150" height="26" as="geometry" />
        </mxCell>
        <mxCell id="-_jbPHPiex7v6BaQ6Vg4-4" value="&lt;font style=&quot;font-size: 14px;&quot;&gt;Employee GUI&lt;/font&gt;" style="shape=folder;fontStyle=1;spacingTop=10;tabWidth=40;tabHeight=14;tabPosition=left;html=1;whiteSpace=wrap;" vertex="1" parent="1">
          <mxGeometry x="420" y="130" width="140" height="90" as="geometry" />
        </mxCell>
        <mxCell id="-_jbPHPiex7v6BaQ6Vg4-5" value="&lt;font style=&quot;font-size: 17px;&quot;&gt;Server&amp;nbsp; App&lt;/font&gt;" style="shape=folder;fontStyle=1;spacingTop=10;tabWidth=45;tabHeight=30;tabPosition=left;html=1;whiteSpace=wrap;" vertex="1" parent="1">
          <mxGeometry x="320" y="360" width="165" height="110" as="geometry" />
        </mxCell>
        <mxCell id="-_jbPHPiex7v6BaQ6Vg4-6" value="&lt;font style=&quot;font-size: 17px;&quot;&gt;DataBase&lt;/font&gt;" style="shape=folder;fontStyle=1;spacingTop=10;tabWidth=45;tabHeight=30;tabPosition=left;html=1;whiteSpace=wrap;" vertex="1" parent="1">
          <mxGeometry x="450" y="540" width="165" height="110" as="geometry" />
        </mxCell>
        <mxCell id="-_jbPHPiex7v6BaQ6Vg4-8" value="" style="endArrow=classic;startArrow=classic;html=1;rounded=0;entryX=0.5;entryY=1;entryDx=0;entryDy=0;entryPerimeter=0;exitX=0;exitY=0;exitDx=105;exitDy=30;exitPerimeter=0;" edge="1" parent="1" source="-_jbPHPiex7v6BaQ6Vg4-5" target="-_jbPHPiex7v6BaQ6Vg4-1">
          <mxGeometry width="50" height="50" relative="1" as="geometry">
            <mxPoint x="410" y="360" as="sourcePoint" />
            <mxPoint x="460" y="310" as="targetPoint" />
          </mxGeometry>
        </mxCell>
        <mxCell id="-_jbPHPiex7v6BaQ6Vg4-9" value="" style="endArrow=classic;startArrow=classic;html=1;rounded=0;entryX=0.75;entryY=1;entryDx=0;entryDy=0;entryPerimeter=0;exitX=0;exitY=0;exitDx=105;exitDy=30;exitPerimeter=0;" edge="1" parent="1" source="-_jbPHPiex7v6BaQ6Vg4-6" target="-_jbPHPiex7v6BaQ6Vg4-5">
          <mxGeometry width="50" height="50" relative="1" as="geometry">
            <mxPoint x="620" y="500" as="sourcePoint" />
            <mxPoint x="580" y="380" as="targetPoint" />
          </mxGeometry>
        </mxCell>
      </root>
    </mxGraphModel>
  </diagram>
</mxfile>
